<svg xmlns="http://www.w3.org/2000/svg" viewBox="0 0 340 138" width="340" height="138">
<style>
  .cf-l{stroke:#9aa3b2;fill:none;stroke-width:1}
  .cf-m{stroke:#48505f;fill:none;stroke-width:1.5}
  .cf-fill{fill:#eceff5;stroke:#48505f;stroke-width:1.5}
  .cf-a{stroke:#2f6fd0;fill:none;stroke-width:2}
  .cf-af{fill:#dbe5f5;stroke:#2f6fd0;stroke-width:2}
  .cf-g{stroke:#b0800f;fill:none;stroke-width:2}
  .cf-gf{fill:#f5ead0;stroke:#b0800f;stroke-width:2}
  .cf-void{fill:#ffffff;stroke:#48505f;stroke-width:1.5}
  text{font-family:ui-sans-serif,-apple-system,"Segoe UI",Roboto,Helvetica,sans-serif;font-size:12px;fill:#39404d}
  text.cf-d{fill:#77808f;font-size:11.5px}
  text.cf-c{font-family:ui-monospace,SFMono-Regular,Menlo,Consolas,monospace;font-size:11.5px;fill:#2f6fd0}
  text.cf-gd{font-family:ui-monospace,SFMono-Regular,Menlo,Consolas,monospace;font-size:11.5px;fill:#b0800f}
  text.cf-big{font-size:14px;font-weight:600}
  @media (prefers-color-scheme:dark){
    .cf-l{stroke:#5c6577} .cf-m{stroke:#aeb6c4} .cf-fill{fill:#1b2333;stroke:#aeb6c4}
    .cf-a{stroke:#6aa2f0} .cf-af{fill:#1a2942;stroke:#6aa2f0}
    .cf-g{stroke:#e0b355} .cf-gf{fill:#2a2210;stroke:#e0b355}
    .cf-void{fill:#0f141d;stroke:#aeb6c4}
    text{fill:#d3d9e4} text.cf-d{fill:#98a1b2} text.cf-c{fill:#6aa2f0} text.cf-gd{fill:#e0b355}
  }
</style>

  <rect class="cf-af" x="20" y="42" width="52" height="30" rx="3"/><text x="46" y="61" text-anchor="middle">face</text><text class="cf-d" x="46" y="87" text-anchor="middle">5 bits</text><rect class="cf-af" x="76" y="42" width="96" height="30" rx="3"/><text x="124" y="61" text-anchor="middle">path digits</text><text class="cf-d" x="124" y="87" text-anchor="middle">2 bits x C</text><rect class="cf-fill" x="176" y="42" width="74" height="30" rx="3"/><text x="213" y="61" text-anchor="middle">q</text><text class="cf-d" x="213" y="87" text-anchor="middle">D-C bits</text><rect class="cf-fill" x="254" y="42" width="74" height="30" rx="3"/><text x="291" y="61" text-anchor="middle">r</text><text class="cf-d" x="291" y="87" text-anchor="middle">D-C bits</text>
  <path class="cf-a" d="M20 32 L172 32"/>
  <path class="cf-l" d="M20 28 L20 36 M172 28 L172 36"/>
  <text class="cf-c" x="96" y="24" text-anchor="middle">chunk ID</text>
  <path class="cf-l" d="M176 32 L328 32"/>
  <path class="cf-l" d="M176 28 L176 36 M328 28 L328 36"/>
  <text class="cf-d" x="252" y="24" text-anchor="middle">where in the chunk</text>
  <text class="cf-d" x="170" y="126" text-anchor="middle">total width is 5 + 2D bits, wherever the cut falls</text>
</svg>
