<svg xmlns="http://www.w3.org/2000/svg" viewBox="0 0 465 214" width="465" height="214">
<style>
  .cf-l{stroke:#9aa3b2;fill:none;stroke-width:1}
  .cf-m{stroke:#48505f;fill:none;stroke-width:1.5}
  .cf-fill{fill:#eceff5;stroke:#48505f;stroke-width:1.5}
  .cf-a{stroke:#2f6fd0;fill:none;stroke-width:2}
  .cf-af{fill:#dbe5f5;stroke:#2f6fd0;stroke-width:2}
  .cf-g{stroke:#b0800f;fill:none;stroke-width:2}
  .cf-gf{fill:#f5ead0;stroke:#b0800f;stroke-width:2}
  .cf-void{fill:#ffffff;stroke:#48505f;stroke-width:1.5}
  text{font-family:ui-sans-serif,-apple-system,"Segoe UI",Roboto,Helvetica,sans-serif;font-size:12px;fill:#39404d}
  text.cf-d{fill:#77808f;font-size:11.5px}
  text.cf-c{font-family:ui-monospace,SFMono-Regular,Menlo,Consolas,monospace;font-size:11.5px;fill:#2f6fd0}
  text.cf-gd{font-family:ui-monospace,SFMono-Regular,Menlo,Consolas,monospace;font-size:11.5px;fill:#b0800f}
  text.cf-big{font-size:14px;font-weight:600}
  @media (prefers-color-scheme:dark){
    .cf-l{stroke:#5c6577} .cf-m{stroke:#aeb6c4} .cf-fill{fill:#1b2333;stroke:#aeb6c4}
    .cf-a{stroke:#6aa2f0} .cf-af{fill:#1a2942;stroke:#6aa2f0}
    .cf-g{stroke:#e0b355} .cf-gf{fill:#2a2210;stroke:#e0b355}
    .cf-void{fill:#0f141d;stroke:#aeb6c4}
    text{fill:#d3d9e4} text.cf-d{fill:#98a1b2} text.cf-c{fill:#6aa2f0} text.cf-gd{fill:#e0b355}
  }
</style>

  <polygon class="cf-l" points="120.0,12.3 108.1,32.9 131.9,32.9"/><polygon class="cf-l" points="108.1,32.9 120.0,53.4 131.9,32.9"/><polygon class="cf-l" points="108.1,32.9 96.3,53.4 120.0,53.4"/><polygon class="cf-l" points="131.9,32.9 120.0,53.4 143.8,53.4"/><polygon class="cf-l" points="96.3,53.4 108.1,74.0 120.0,53.4"/><polygon class="cf-l" points="108.1,74.0 131.9,74.0 120.0,53.4"/><polygon class="cf-af" points="108.1,74.0 120.0,94.6 131.9,74.0"/><polygon class="cf-l" points="120.0,53.4 131.9,74.0 143.8,53.4"/><polygon class="cf-l" points="96.3,53.4 84.4,74.0 108.1,74.0"/><polygon class="cf-l" points="84.4,74.0 96.3,94.6 108.1,74.0"/><polygon class="cf-l" points="84.4,74.0 72.5,94.6 96.3,94.6"/><polygon class="cf-af" points="108.1,74.0 96.3,94.6 120.0,94.6"/><polygon class="cf-l" points="143.8,53.4 131.9,74.0 155.6,74.0"/><polygon class="cf-l" points="131.9,74.0 143.8,94.6 155.6,74.0"/><polygon class="cf-af" points="131.9,74.0 120.0,94.6 143.8,94.6"/><polygon class="cf-l" points="155.6,74.0 143.8,94.6 167.5,94.6"/><polygon class="cf-af" points="72.5,94.6 84.4,115.1 96.3,94.6"/><polygon class="cf-af" points="84.4,115.1 108.1,115.1 96.3,94.6"/><polygon class="cf-af" points="84.4,115.1 96.3,135.7 108.1,115.1"/><polygon class="cf-af" points="96.3,94.6 108.1,115.1 120.0,94.6"/><polygon class="cf-af" points="96.3,135.7 120.0,135.7 108.1,115.1"/><polygon class="cf-af" points="120.0,135.7 131.9,115.1 108.1,115.1"/><polygon class="cf-af" points="120.0,135.7 143.8,135.7 131.9,115.1"/><polygon class="cf-af" points="108.1,115.1 131.9,115.1 120.0,94.6"/><polygon class="cf-af" points="96.3,135.7 108.1,156.3 120.0,135.7"/><polygon class="cf-af" points="108.1,156.3 131.9,156.3 120.0,135.7"/><polygon class="cf-af" points="108.1,156.3 120.0,176.8 131.9,156.3"/><polygon class="cf-af" points="120.0,135.7 131.9,156.3 143.8,135.7"/><polygon class="cf-af" points="120.0,94.6 131.9,115.1 143.8,94.6"/><polygon class="cf-af" points="131.9,115.1 155.6,115.1 143.8,94.6"/><polygon class="cf-af" points="131.9,115.1 143.8,135.7 155.6,115.1"/><polygon class="cf-af" points="143.8,94.6 155.6,115.1 167.5,94.6"/><polygon class="cf-l" points="72.5,94.6 60.6,115.1 84.4,115.1"/><polygon class="cf-l" points="60.6,115.1 72.5,135.7 84.4,115.1"/><polygon class="cf-l" points="60.6,115.1 48.8,135.7 72.5,135.7"/><polygon class="cf-af" points="84.4,115.1 72.5,135.7 96.3,135.7"/><polygon class="cf-l" points="48.8,135.7 60.6,156.3 72.5,135.7"/><polygon class="cf-l" points="60.6,156.3 84.4,156.3 72.5,135.7"/><polygon class="cf-l" points="60.6,156.3 72.5,176.8 84.4,156.3"/><polygon class="cf-af" points="72.5,135.7 84.4,156.3 96.3,135.7"/><polygon class="cf-l" points="48.8,135.7 36.9,156.3 60.6,156.3"/><polygon class="cf-l" points="36.9,156.3 48.8,176.8 60.6,156.3"/><polygon class="cf-l" points="36.9,156.3 25.0,176.8 48.8,176.8"/><polygon class="cf-l" points="60.6,156.3 48.8,176.8 72.5,176.8"/><polygon class="cf-af" points="96.3,135.7 84.4,156.3 108.1,156.3"/><polygon class="cf-af" points="84.4,156.3 96.3,176.8 108.1,156.3"/><polygon class="cf-l" points="84.4,156.3 72.5,176.8 96.3,176.8"/><polygon class="cf-af" points="108.1,156.3 96.3,176.8 120.0,176.8"/><polygon class="cf-af" points="167.5,94.6 155.6,115.1 179.4,115.1"/><polygon class="cf-af" points="155.6,115.1 167.5,135.7 179.4,115.1"/><polygon class="cf-af" points="155.6,115.1 143.8,135.7 167.5,135.7"/><polygon class="cf-l" points="179.4,115.1 167.5,135.7 191.3,135.7"/><polygon class="cf-af" points="143.8,135.7 155.6,156.3 167.5,135.7"/><polygon class="cf-af" points="155.6,156.3 179.4,156.3 167.5,135.7"/><polygon class="cf-af" points="155.6,156.3 167.5,176.8 179.4,156.3"/><polygon class="cf-l" points="167.5,135.7 179.4,156.3 191.3,135.7"/><polygon class="cf-af" points="143.8,135.7 131.9,156.3 155.6,156.3"/><polygon class="cf-af" points="131.9,156.3 143.8,176.8 155.6,156.3"/><polygon class="cf-af" points="131.9,156.3 120.0,176.8 143.8,176.8"/><polygon class="cf-af" points="155.6,156.3 143.8,176.8 167.5,176.8"/><polygon class="cf-l" points="191.3,135.7 179.4,156.3 203.1,156.3"/><polygon class="cf-l" points="179.4,156.3 191.3,176.8 203.1,156.3"/><polygon class="cf-l" points="179.4,156.3 167.5,176.8 191.3,176.8"/><polygon class="cf-l" points="203.1,156.3 191.3,176.8 215.0,176.8"/>
  <circle class="cf-g" cx="126" cy="132" r="52" stroke-dasharray="5 4"/>
  <text class="cf-d" x="120" y="30" text-anchor="middle">what the player can see</text>
  <text class="cf-c" x="236" y="30">the same chunks, on the ID line</text>
  <rect class="cf-fill" x="236.0" y="120" width="2.4" height="20"/><rect class="cf-fill" x="238.8" y="120" width="2.4" height="20"/><rect class="cf-fill" x="241.7" y="120" width="2.4" height="20"/><rect class="cf-fill" x="244.5" y="120" width="2.4" height="20"/><rect class="cf-fill" x="247.4" y="120" width="2.4" height="20"/><rect class="cf-fill" x="250.2" y="120" width="2.4" height="20"/><rect class="cf-af" x="253.1" y="120" width="2.4" height="20"/><rect class="cf-fill" x="255.9" y="120" width="2.4" height="20"/><rect class="cf-fill" x="258.8" y="120" width="2.4" height="20"/><rect class="cf-fill" x="261.6" y="120" width="2.4" height="20"/><rect class="cf-fill" x="264.4" y="120" width="2.4" height="20"/><rect class="cf-af" x="267.3" y="120" width="2.4" height="20"/><rect class="cf-fill" x="270.1" y="120" width="2.4" height="20"/><rect class="cf-fill" x="273.0" y="120" width="2.4" height="20"/><rect class="cf-af" x="275.8" y="120" width="2.4" height="20"/><rect class="cf-fill" x="278.7" y="120" width="2.4" height="20"/><rect class="cf-af" x="281.5" y="120" width="2.4" height="20"/><rect class="cf-af" x="284.3" y="120" width="2.4" height="20"/><rect class="cf-af" x="287.2" y="120" width="2.4" height="20"/><rect class="cf-af" x="290.0" y="120" width="2.4" height="20"/><rect class="cf-af" x="292.9" y="120" width="2.4" height="20"/><rect class="cf-af" x="295.7" y="120" width="2.4" height="20"/><rect class="cf-af" x="298.6" y="120" width="2.4" height="20"/><rect class="cf-af" x="301.4" y="120" width="2.4" height="20"/><rect class="cf-af" x="304.3" y="120" width="2.4" height="20"/><rect class="cf-af" x="307.1" y="120" width="2.4" height="20"/><rect class="cf-af" x="309.9" y="120" width="2.4" height="20"/><rect class="cf-af" x="312.8" y="120" width="2.4" height="20"/><rect class="cf-af" x="315.6" y="120" width="2.4" height="20"/><rect class="cf-af" x="318.5" y="120" width="2.4" height="20"/><rect class="cf-af" x="321.3" y="120" width="2.4" height="20"/><rect class="cf-af" x="324.2" y="120" width="2.4" height="20"/><rect class="cf-fill" x="327.0" y="120" width="2.4" height="20"/><rect class="cf-fill" x="329.8" y="120" width="2.4" height="20"/><rect class="cf-fill" x="332.7" y="120" width="2.4" height="20"/><rect class="cf-af" x="335.5" y="120" width="2.4" height="20"/><rect class="cf-fill" x="338.4" y="120" width="2.4" height="20"/><rect class="cf-fill" x="341.2" y="120" width="2.4" height="20"/><rect class="cf-fill" x="344.1" y="120" width="2.4" height="20"/><rect class="cf-af" x="346.9" y="120" width="2.4" height="20"/><rect class="cf-fill" x="349.8" y="120" width="2.4" height="20"/><rect class="cf-fill" x="352.6" y="120" width="2.4" height="20"/><rect class="cf-fill" x="355.4" y="120" width="2.4" height="20"/><rect class="cf-fill" x="358.3" y="120" width="2.4" height="20"/><rect class="cf-af" x="361.1" y="120" width="2.4" height="20"/><rect class="cf-af" x="364.0" y="120" width="2.4" height="20"/><rect class="cf-fill" x="366.8" y="120" width="2.4" height="20"/><rect class="cf-af" x="369.7" y="120" width="2.4" height="20"/><rect class="cf-af" x="372.5" y="120" width="2.4" height="20"/><rect class="cf-af" x="375.3" y="120" width="2.4" height="20"/><rect class="cf-af" x="378.2" y="120" width="2.4" height="20"/><rect class="cf-fill" x="381.0" y="120" width="2.4" height="20"/><rect class="cf-af" x="383.9" y="120" width="2.4" height="20"/><rect class="cf-af" x="386.7" y="120" width="2.4" height="20"/><rect class="cf-af" x="389.6" y="120" width="2.4" height="20"/><rect class="cf-fill" x="392.4" y="120" width="2.4" height="20"/><rect class="cf-af" x="395.3" y="120" width="2.4" height="20"/><rect class="cf-af" x="398.1" y="120" width="2.4" height="20"/><rect class="cf-af" x="400.9" y="120" width="2.4" height="20"/><rect class="cf-af" x="403.8" y="120" width="2.4" height="20"/><rect class="cf-fill" x="406.6" y="120" width="2.4" height="20"/><rect class="cf-fill" x="409.5" y="120" width="2.4" height="20"/><rect class="cf-fill" x="412.3" y="120" width="2.4" height="20"/><rect class="cf-fill" x="415.2" y="120" width="2.4" height="20"/>
  <text class="cf-d" x="236" y="112">low IDs</text>
  <text class="cf-d" x="418.0" y="112" text-anchor="end">high IDs</text>
  <text class="cf-gd" x="236" y="166">10 separate runs, not one</text>
  <text class="cf-d" x="236" y="188">a range is always a patch.</text>
  <text class="cf-d" x="236" y="206">a patch is not always a range.</text>
</svg>
