<svg xmlns="http://www.w3.org/2000/svg" viewBox="0 0 460 236" width="460" height="236">
<style>
  .cf-l{stroke:#9aa3b2;fill:none;stroke-width:1}
  .cf-m{stroke:#48505f;fill:none;stroke-width:1.5}
  .cf-fill{fill:#eceff5;stroke:#48505f;stroke-width:1.5}
  .cf-a{stroke:#2f6fd0;fill:none;stroke-width:2}
  .cf-af{fill:#dbe5f5;stroke:#2f6fd0;stroke-width:2}
  .cf-g{stroke:#b0800f;fill:none;stroke-width:2}
  .cf-gf{fill:#f5ead0;stroke:#b0800f;stroke-width:2}
  .cf-void{fill:#ffffff;stroke:#48505f;stroke-width:1.5}
  text{font-family:ui-sans-serif,-apple-system,"Segoe UI",Roboto,Helvetica,sans-serif;font-size:12px;fill:#39404d}
  text.cf-d{fill:#77808f;font-size:11.5px}
  text.cf-c{font-family:ui-monospace,SFMono-Regular,Menlo,Consolas,monospace;font-size:11.5px;fill:#2f6fd0}
  text.cf-gd{font-family:ui-monospace,SFMono-Regular,Menlo,Consolas,monospace;font-size:11.5px;fill:#b0800f}
  text.cf-big{font-size:14px;font-weight:600}
  @media (prefers-color-scheme:dark){
    .cf-l{stroke:#5c6577} .cf-m{stroke:#aeb6c4} .cf-fill{fill:#1b2333;stroke:#aeb6c4}
    .cf-a{stroke:#6aa2f0} .cf-af{fill:#1a2942;stroke:#6aa2f0}
    .cf-g{stroke:#e0b355} .cf-gf{fill:#2a2210;stroke:#e0b355}
    .cf-void{fill:#0f141d;stroke:#aeb6c4}
    text{fill:#d3d9e4} text.cf-d{fill:#98a1b2} text.cf-c{fill:#6aa2f0} text.cf-gd{fill:#e0b355}
  }
</style>

  <defs><marker id="sun" markerWidth="7" markerHeight="7" refX="6" refY="3.5" orient="auto">
    <path d="M0 0L7 3.5L0 7Z" fill="#b0800f"/></marker></defs>
  <path class="cf-g" d="M28 48.0L132.0 48.0" marker-end="url(#sun)"/><path class="cf-g" d="M28 68.0L132.0 68.0" marker-end="url(#sun)"/><path class="cf-g" d="M28 88.0L132.0 88.0" marker-end="url(#sun)"/><path class="cf-g" d="M28 108.0L132.0 108.0" marker-end="url(#sun)"/><path class="cf-g" d="M28 128.0L132.0 128.0" marker-end="url(#sun)"/><path class="cf-g" d="M28 148.0L132.0 148.0" marker-end="url(#sun)"/><path class="cf-g" d="M28 168.0L132.0 168.0" marker-end="url(#sun)"/><path class="cf-g" d="M28 188.0L132.0 188.0" marker-end="url(#sun)"/>
  <circle class="cf-void" cx="230.0" cy="118.0" r="84.0"/>
  <path class="cf-gf" d="M230.0 34.0 A 84.0 84.0 0 0 0 230.0 202.0Z"/>
  <line class="cf-m" x1="230.0" y1="34.0" x2="230.0" y2="202.0"
    stroke-dasharray="4 3"/>
  <path class="cf-g" d="M151.1 89.3L122.9 79.0"/>
      <circle class="cf-fill" cx="151.1" cy="89.3" r="3.5"/>
      <text class="cf-gd" x="116.9"
        y="83.0" text-anchor="end">dot &gt; 0 &#183; day</text>
  <path class="cf-m" d="M230.0 34.0L230.0 4.0"/>
      <circle class="cf-fill" cx="230.0" cy="34.0" r="3.5"/>
      <text class="cf-gd" x="236.0"
        y="8.0" text-anchor="start">dot = 0 &#183; the terminator</text>
  <path class="cf-a" d="M308.9 89.3L337.1 79.0"/>
      <circle class="cf-fill" cx="308.9" cy="89.3" r="3.5"/>
      <text class="cf-c" x="343.1"
        y="83.0" text-anchor="start">dot &lt; 0 &#183; night</text>
  <text class="cf-gd" x="28" y="26">sunlight</text>
  <text class="cf-d" x="230" y="228" text-anchor="middle">lit = dot(sunDirection, up) &gt; 0 &#183; and up is already computed for gravity</text>
</svg>
