<svg xmlns="http://www.w3.org/2000/svg" viewBox="0 0 460 214" width="460" height="214">
<style>
  .cf-l{stroke:#9aa3b2;fill:none;stroke-width:1}
  .cf-m{stroke:#48505f;fill:none;stroke-width:1.5}
  .cf-fill{fill:#eceff5;stroke:#48505f;stroke-width:1.5}
  .cf-a{stroke:#2f6fd0;fill:none;stroke-width:2}
  .cf-af{fill:#dbe5f5;stroke:#2f6fd0;stroke-width:2}
  .cf-g{stroke:#b0800f;fill:none;stroke-width:2}
  .cf-gf{fill:#f5ead0;stroke:#b0800f;stroke-width:2}
  .cf-void{fill:#ffffff;stroke:#48505f;stroke-width:1.5}
  text{font-family:ui-sans-serif,-apple-system,"Segoe UI",Roboto,Helvetica,sans-serif;font-size:12px;fill:#39404d}
  text.cf-d{fill:#77808f;font-size:11.5px}
  text.cf-c{font-family:ui-monospace,SFMono-Regular,Menlo,Consolas,monospace;font-size:11.5px;fill:#2f6fd0}
  text.cf-gd{font-family:ui-monospace,SFMono-Regular,Menlo,Consolas,monospace;font-size:11.5px;fill:#b0800f}
  text.cf-big{font-size:14px;font-weight:600}
  @media (prefers-color-scheme:dark){
    .cf-l{stroke:#5c6577} .cf-m{stroke:#aeb6c4} .cf-fill{fill:#1b2333;stroke:#aeb6c4}
    .cf-a{stroke:#6aa2f0} .cf-af{fill:#1a2942;stroke:#6aa2f0}
    .cf-g{stroke:#e0b355} .cf-gf{fill:#2a2210;stroke:#e0b355}
    .cf-void{fill:#0f141d;stroke:#aeb6c4}
    text{fill:#d3d9e4} text.cf-d{fill:#98a1b2} text.cf-c{fill:#6aa2f0} text.cf-gd{fill:#e0b355}
  }
</style>

  <rect class="cf-af" x="20.0" y="98.0" width="25" height="25" opacity="0.45"/><rect class="cf-af" x="20.0" y="72.0" width="25" height="25" opacity="0.45"/><rect class="cf-af" x="20.0" y="46.0" width="25" height="25" opacity="0.45"/><rect class="cf-fill" x="20.0" y="124.0" width="25" height="26.0"/><rect class="cf-af" x="46.0" y="124.0" width="25" height="25" opacity="0.45"/><rect class="cf-af" x="46.0" y="98.0" width="25" height="25" opacity="0.45"/><rect class="cf-af" x="46.0" y="72.0" width="25" height="25" opacity="0.45"/><rect class="cf-af" x="46.0" y="46.0" width="25" height="25" opacity="0.45"/><rect class="cf-fill" x="46.0" y="150.0" width="25" height="0.0"/><rect class="cf-af" x="72.0" y="124.0" width="25" height="25" opacity="0.45"/><rect class="cf-af" x="72.0" y="98.0" width="25" height="25" opacity="0.45"/><rect class="cf-af" x="72.0" y="72.0" width="25" height="25" opacity="0.45"/><rect class="cf-af" x="72.0" y="46.0" width="25" height="25" opacity="0.45"/><rect class="cf-fill" x="72.0" y="150.0" width="25" height="0.0"/><rect class="cf-af" x="98.0" y="124.0" width="25" height="25" opacity="0.45"/><rect class="cf-af" x="98.0" y="98.0" width="25" height="25" opacity="0.45"/><rect class="cf-af" x="98.0" y="72.0" width="25" height="25" opacity="0.45"/><rect class="cf-af" x="98.0" y="46.0" width="25" height="25" opacity="0.45"/><rect class="cf-fill" x="98.0" y="150.0" width="25" height="0.0"/><rect class="cf-af" x="124.0" y="98.0" width="25" height="25" opacity="0.45"/><rect class="cf-af" x="124.0" y="72.0" width="25" height="25" opacity="0.45"/><rect class="cf-af" x="124.0" y="46.0" width="25" height="25" opacity="0.45"/><rect class="cf-fill" x="124.0" y="124.0" width="25" height="26.0"/><rect class="cf-a" x="20.0" y="98.0" width="25" height="25" fill="none"/><rect class="cf-a" x="20.0" y="72.0" width="25" height="25" fill="none"/><rect class="cf-a" x="20.0" y="46.0" width="25" height="25" fill="none"/><rect class="cf-a" x="46.0" y="124.0" width="25" height="25" fill="none"/><rect class="cf-a" x="46.0" y="98.0" width="25" height="25" fill="none"/><rect class="cf-a" x="46.0" y="72.0" width="25" height="25" fill="none"/><rect class="cf-a" x="46.0" y="46.0" width="25" height="25" fill="none"/><rect class="cf-a" x="72.0" y="124.0" width="25" height="25" fill="none"/><rect class="cf-a" x="72.0" y="98.0" width="25" height="25" fill="none"/><rect class="cf-a" x="72.0" y="72.0" width="25" height="25" fill="none"/><rect class="cf-a" x="72.0" y="46.0" width="25" height="25" fill="none"/><rect class="cf-a" x="98.0" y="124.0" width="25" height="25" fill="none"/><rect class="cf-a" x="98.0" y="98.0" width="25" height="25" fill="none"/><rect class="cf-a" x="98.0" y="72.0" width="25" height="25" fill="none"/><rect class="cf-a" x="98.0" y="46.0" width="25" height="25" fill="none"/><rect class="cf-a" x="124.0" y="98.0" width="25" height="25" fill="none"/><rect class="cf-a" x="124.0" y="72.0" width="25" height="25" fill="none"/><rect class="cf-a" x="124.0" y="46.0" width="25" height="25" fill="none"/>
  <text class="cf-d" x="85" y="42" text-anchor="middle">every water cell</text>
  <text class="cf-gd" x="85" y="186" text-anchor="middle">12.7 M faces</text>
  <rect class="cf-af" x="280.0" y="98.0" width="25" height="25" opacity="0.45"/><rect class="cf-af" x="280.0" y="72.0" width="25" height="25" opacity="0.45"/><rect class="cf-af" x="280.0" y="46.0" width="25" height="25" opacity="0.45"/><rect class="cf-fill" x="280.0" y="124.0" width="25" height="26.0"/><rect class="cf-af" x="306.0" y="124.0" width="25" height="25" opacity="0.45"/><rect class="cf-af" x="306.0" y="98.0" width="25" height="25" opacity="0.45"/><rect class="cf-af" x="306.0" y="72.0" width="25" height="25" opacity="0.45"/><rect class="cf-af" x="306.0" y="46.0" width="25" height="25" opacity="0.45"/><rect class="cf-fill" x="306.0" y="150.0" width="25" height="0.0"/><rect class="cf-af" x="332.0" y="124.0" width="25" height="25" opacity="0.45"/><rect class="cf-af" x="332.0" y="98.0" width="25" height="25" opacity="0.45"/><rect class="cf-af" x="332.0" y="72.0" width="25" height="25" opacity="0.45"/><rect class="cf-af" x="332.0" y="46.0" width="25" height="25" opacity="0.45"/><rect class="cf-fill" x="332.0" y="150.0" width="25" height="0.0"/><rect class="cf-af" x="358.0" y="124.0" width="25" height="25" opacity="0.45"/><rect class="cf-af" x="358.0" y="98.0" width="25" height="25" opacity="0.45"/><rect class="cf-af" x="358.0" y="72.0" width="25" height="25" opacity="0.45"/><rect class="cf-af" x="358.0" y="46.0" width="25" height="25" opacity="0.45"/><rect class="cf-fill" x="358.0" y="150.0" width="25" height="0.0"/><rect class="cf-af" x="384.0" y="98.0" width="25" height="25" opacity="0.45"/><rect class="cf-af" x="384.0" y="72.0" width="25" height="25" opacity="0.45"/><rect class="cf-af" x="384.0" y="46.0" width="25" height="25" opacity="0.45"/><rect class="cf-fill" x="384.0" y="124.0" width="25" height="26.0"/><path class="cf-a" stroke-width="3" d="M280.0 62L409.0 62"/>
  <text class="cf-d" x="345" y="42" text-anchor="middle">after culling, as for stone</text>
  <text class="cf-c" x="345" y="186" text-anchor="middle">113 K faces &#183; 0.89%</text>
  <path class="cf-l" d="M230 50L230 196" stroke-dasharray="2 5"/>
  <text class="cf-d" x="230" y="208" text-anchor="middle">a water cell surrounded by water emits nothing, exactly like rock</text>
</svg>
